<?xml version="1.0" encoding="UTF-8"?>
<!DOCTYPE svg PUBLIC "-//W3C//DTD SVG 1.1//EN" "http://www.w3.org/Graphics/SVG/1.1/DTD/svg11.dtd">
<!-- Creator: CorelDRAW -->
<svg xmlns="http://www.w3.org/2000/svg" xml:space="preserve" width="127.256mm" height="205.998mm" version="1.1" style="shape-rendering:geometricPrecision; text-rendering:geometricPrecision; image-rendering:optimizeQuality; fill-rule:evenodd; clip-rule:evenodd"
viewBox="0 0 12724.56 20598.09"
 xmlns:xlink="http://www.w3.org/1999/xlink"
 xmlns:xodm="http://www.corel.com/coreldraw/odm/2003">
 <defs>
  <style type="text/css">
   <![CDATA[
    .fil0 {fill:#EE1D23}
   ]]>
  </style>
 </defs>
 <g id="Camada_x0020_1">
  <metadata id="CorelCorpID_0Corel-Layer"/>
  <path class="fil0" d="M3414.67 12880.91l276.15 -304.86 274.59 -274.45 549.2 -549.02 431.68 -416.76 177.04 165.83 1658.55 1658.92 549.17 549.01 557 616.1 -190.34 175.3 -1233.72 1235.7 -103.47 105.59 -2945.85 -2961.35zm1415.82 -6566.26l97.3 -120.79 1424.4 -1401.5 66.66 37.7 47.71 44.34 90.29 91.72 2654.35 2652.57 83.67 114.46 -189.04 214.09 -1132.56 1132.48 -202.59 174.74 -749.15 -726.37 -2191.05 -2213.43zm-1665.27 0l1961.69 1957.4 1979.05 1978.96 2962.71 2963.05 989.11 1016.72 -131.53 159 -68.43 68.36 -377.55 377.2 -282.73 288.62 -300.86 294.68 -1177.96 1178.63 -1166.82 1168.08 -134.7 138.5 -1064.99 1030.15 -4496.04 -4497.31 684.97 -721.54 977.42 925.78 1647.66 1645.98 237.51 240.69 474.3 465.44 474.17 476.5 3188.42 -3172.37 -1962.18 -1979.07 -5927.13 -5957.7 3500.1 -3510.35 585.28 -583.01 615.5 -590.58 1151.17 1107.71 3077.37 3077.05 264.29 303.61 -503.59 547.01 -207.07 174.01 -240.95 -223.07 -1647.33 -1647.19 -1871.01 -1888.9 -2404.08 2385.39 -805.77 802.56zm-3162.72 47.02l956.73 976.19 2447.79 2448.08 487.42 509.66 -472.28 501.88 -491.95 491.79 -983.49 984.13 -1946.72 1957.39 6354.2 6367.33 977.05 -972.57 205.73 -205.98 1201.99 -1201.05 1588.96 -1590.68 2396.63 -2397.05 -1950.64 -1950.82 -972.41 -972.29 -970.96 -1012.08 109.52 -134.76 3784.02 -3800.42 -6365.17 -6360.4 -6356.43 6361.66z"/>
 </g>
</svg>
